<svg xmlns="http://www.w3.org/2000/svg" viewBox="25 820 1485 170" role="img" aria-labelledby="title"><title id="title">Aster Works — wektoryzacja oczyszczonego logo</title><path fill="#12b8db" stroke="#12b8db" stroke-width="0.8" stroke-linejoin="round" fill-rule="evenodd" d="M768 28L780 28L780 29L789 29L789 30L798 31L798 32L804 33L804 34L807 34L807 35L809 35L809 36L811 36L811 37L813 37L813 38L817 39L817 40L819 40L820 42L824 43L826 46L828 46L828 47L829 47L829 48L830 48L830 49L831 49L831 50L832 50L832 51L833 51L833 52L834 52L834 53L835 53L835 54L836 54L839 58L840 58L840 59L841 59L841 60L842 60L842 61L843 61L843 63L844 63L844 64L845 64L845 66L847 67L847 69L849 70L850 74L852 75L852 77L853 77L853 79L854 79L854 82L855 82L855 84L856 84L856 87L857 87L857 89L858 89L858 92L859 92L859 96L860 96L860 100L861 100L861 105L862 105L862 113L863 113L863 129L862 129L862 137L861 137L861 142L860 142L860 146L859 146L859 149L858 149L858 153L857 153L857 155L856 155L856 158L855 158L855 160L854 160L854 162L853 162L853 164L852 164L851 168L850 168L850 170L849 170L849 172L848 172L848 173L847 173L847 175L845 176L845 178L842 180L842 182L841 182L841 183L840 183L840 184L839 184L839 185L838 185L838 186L837 186L837 187L836 187L836 188L835 188L835 189L834 189L834 190L830 193L830 194L829 194L829 195L828 195L828 196L827 196L827 197L825 197L824 199L822 199L822 204L821 204L822 221L823 221L824 229L825 229L825 231L826 231L826 234L827 234L827 236L828 236L828 238L829 238L830 242L831 242L831 243L832 243L832 245L834 246L834 248L835 248L835 249L836 249L836 250L837 250L837 251L838 251L838 252L839 252L839 253L840 253L843 257L844 257L844 258L845 258L845 259L847 259L847 260L848 260L848 261L850 261L851 263L853 263L853 264L857 265L857 266L855 266L855 267L854 267L854 269L853 269L853 270L852 270L852 272L851 272L851 274L849 275L848 279L846 280L845 284L843 285L842 289L840 290L839 295L838 295L837 293L835 293L835 292L831 291L830 289L825 288L825 287L823 287L823 286L819 285L819 284L813 283L813 282L810 282L810 281L806 281L806 280L803 280L803 279L798 279L798 278L794 278L794 277L788 277L788 276L781 276L781 275L780 275L780 266L781 266L781 189L782 189L782 175L784 175L784 174L786 174L786 173L789 173L789 172L791 172L791 171L795 170L796 168L800 167L802 164L804 164L804 163L805 163L805 162L806 162L806 161L807 161L807 160L808 160L808 159L809 159L812 155L813 155L813 154L814 154L814 152L815 152L815 151L816 151L816 149L818 148L818 146L819 146L819 144L820 144L820 142L821 142L822 138L823 138L823 134L824 134L824 131L825 131L825 125L826 125L826 112L825 112L825 106L824 106L824 103L823 103L822 97L821 97L821 95L820 95L819 91L818 91L818 90L817 90L817 88L815 87L815 85L814 85L814 84L813 84L813 83L812 83L812 82L811 82L811 81L810 81L807 77L806 77L806 76L804 76L802 73L800 73L800 72L798 72L798 71L796 71L796 70L792 69L792 68L786 67L786 66L767 64L767 29L768 29ZM702 31L704 31L704 32L703 32L703 33L699 36L699 37L697 37L697 38L696 38L696 39L695 39L695 40L694 40L694 41L693 41L693 42L692 42L692 43L688 46L688 47L687 47L687 48L686 48L686 50L682 53L682 55L681 55L681 56L679 57L679 59L677 60L677 62L676 62L676 64L674 65L674 67L673 67L673 69L672 69L671 73L670 73L670 76L669 76L669 78L668 78L668 80L667 80L667 83L666 83L666 86L665 86L664 93L662 93L661 95L657 96L656 98L654 98L654 99L650 100L649 102L645 103L644 105L640 106L639 108L637 108L637 109L633 110L632 112L628 113L627 115L625 115L625 116L621 117L620 119L616 120L615 122L611 123L610 125L608 125L608 126L604 127L603 129L601 129L601 130L599 130L598 132L596 132L596 133L592 134L591 136L587 137L586 139L584 139L584 140L582 140L581 142L579 142L579 143L575 144L574 146L572 146L572 147L570 147L569 149L567 149L567 150L563 151L562 153L558 154L557 156L553 157L552 159L550 159L550 160L546 161L545 163L541 164L540 166L538 166L538 167L536 167L536 168L534 168L534 169L533 169L533 168L527 168L527 167L519 167L519 166L494 166L494 167L486 167L486 168L476 169L476 170L472 170L472 171L465 172L465 173L462 173L462 174L457 175L457 174L458 174L458 173L459 173L459 172L460 172L460 171L461 171L461 170L465 167L465 166L466 166L466 165L468 165L471 161L473 161L473 160L474 160L474 159L476 159L477 157L479 157L480 155L484 154L485 152L487 152L487 151L491 150L492 148L494 148L494 147L498 146L499 144L501 144L501 143L505 142L506 140L508 140L508 139L510 139L510 138L514 137L515 135L517 135L517 134L521 133L522 131L524 131L524 130L528 129L529 127L531 127L531 126L533 126L533 125L537 124L538 122L540 122L540 121L544 120L545 118L547 118L547 117L551 116L552 114L554 114L554 113L558 112L559 110L561 110L561 109L565 108L566 106L568 106L568 105L572 104L573 102L575 102L575 101L579 100L580 98L582 98L582 97L586 96L587 94L589 94L589 93L593 92L594 90L596 90L596 89L600 88L601 86L603 86L603 85L607 84L608 82L610 82L610 81L614 80L615 78L617 78L617 77L621 76L622 74L624 74L624 73L628 72L629 70L631 70L631 69L635 68L636 66L640 65L641 63L643 63L643 62L647 61L648 59L650 59L650 58L654 57L655 55L659 54L660 52L664 51L664 50L666 50L667 48L669 48L669 47L671 47L671 46L675 45L676 43L678 43L678 42L680 42L680 41L682 41L683 39L685 39L685 38L687 38L687 37L689 37L689 36L693 35L693 34L696 34L696 33L698 33L698 32L702 32ZM496 173L524 173L524 174L530 174L530 175L534 175L534 176L538 176L538 177L545 178L545 179L550 180L550 181L552 181L552 182L556 183L557 185L561 186L561 187L562 187L562 188L564 188L565 190L567 190L570 194L572 194L572 195L573 195L573 196L574 196L574 197L575 197L575 198L576 198L576 199L580 202L580 203L581 203L581 205L584 207L584 209L585 209L585 210L587 211L587 213L589 214L589 216L590 216L590 218L591 218L591 220L592 220L593 224L594 224L594 226L595 226L595 229L596 229L596 231L597 231L597 234L598 234L598 238L599 238L599 242L600 242L600 246L601 246L601 250L602 250L602 254L603 254L603 255L604 255L607 259L608 259L608 260L610 260L610 261L611 261L611 262L613 262L614 264L616 264L616 265L618 265L618 266L621 266L621 267L623 267L623 268L626 268L626 269L631 269L631 270L636 270L636 271L654 271L654 270L664 269L664 268L667 268L667 267L670 267L670 266L672 266L672 265L677 264L677 265L679 266L679 268L680 268L681 272L682 272L682 273L683 273L683 275L685 276L686 280L688 281L689 285L691 286L691 288L692 288L693 292L694 292L696 295L694 295L693 297L691 297L691 298L690 298L690 299L688 299L687 301L685 301L683 304L681 304L681 305L680 305L677 309L676 309L676 310L674 310L674 311L673 311L673 312L672 312L672 313L671 313L671 314L670 314L670 315L669 315L666 319L665 319L665 320L664 320L664 322L663 322L660 326L659 326L659 328L658 328L658 329L655 329L655 328L653 328L652 326L650 326L650 325L646 324L645 322L643 322L643 321L639 320L638 318L634 317L633 315L631 315L631 314L627 313L626 311L622 310L621 308L619 308L619 307L615 306L614 304L610 303L609 301L605 300L604 298L602 298L602 297L598 296L597 294L595 294L595 293L591 292L590 290L586 289L585 287L581 286L581 285L580 285L580 284L578 284L577 282L575 282L575 281L571 280L570 278L566 277L566 276L565 276L565 269L566 269L566 258L565 258L565 251L564 251L564 247L563 247L562 241L561 241L561 239L560 239L560 237L559 237L558 233L556 232L556 230L553 228L553 226L552 226L552 225L551 225L548 221L547 221L547 220L545 220L543 217L541 217L540 215L538 215L538 214L536 214L536 213L532 212L532 211L526 210L526 209L522 209L522 208L516 208L516 207L503 207L503 208L497 208L497 209L493 209L493 210L487 211L487 212L485 212L485 213L483 213L483 214L479 215L479 216L477 216L476 218L474 218L472 221L470 221L470 222L469 222L469 223L468 223L468 224L467 224L467 225L466 225L466 226L462 229L462 230L461 230L461 232L460 232L460 233L458 234L458 236L456 237L456 239L455 239L454 237L450 236L449 234L447 234L446 232L442 231L441 229L437 228L436 226L432 225L431 223L429 223L429 222L427 222L427 221L425 221L425 220L423 221L423 220L425 219L425 217L428 215L428 213L431 211L431 209L432 209L432 208L433 208L433 207L434 207L434 206L435 206L435 205L436 205L436 204L437 204L437 203L438 203L438 202L439 202L442 198L443 198L443 197L444 197L444 196L445 196L445 195L447 195L447 194L448 194L450 191L452 191L453 189L457 188L458 186L460 186L460 185L462 185L462 184L464 184L464 183L468 182L468 181L470 181L470 180L473 180L473 179L475 179L475 178L481 177L481 176L485 176L485 175L490 175L490 174L496 174ZM751 175L753 176L753 276L752 276L752 176L751 176ZM1109 221L1110 221L1110 223L1111 223L1111 225L1112 225L1112 228L1113 228L1113 230L1114 230L1114 233L1115 233L1115 235L1116 235L1117 242L1118 242L1118 247L1119 247L1119 253L1120 253L1120 275L1119 275L1119 282L1118 282L1118 286L1117 286L1117 290L1116 290L1115 296L1114 296L1114 299L1113 299L1113 301L1112 301L1112 303L1111 303L1111 305L1110 305L1109 309L1108 309L1108 311L1107 311L1107 313L1106 313L1106 314L1105 314L1105 316L1103 317L1103 319L1100 321L1100 323L1099 323L1099 324L1098 324L1098 325L1097 325L1097 326L1096 326L1096 327L1095 327L1095 328L1094 328L1094 329L1093 329L1093 330L1092 330L1092 331L1088 334L1088 335L1087 335L1087 336L1086 336L1086 337L1085 337L1085 338L1083 338L1081 341L1079 341L1078 343L1076 343L1075 345L1073 345L1073 346L1071 346L1071 347L1069 347L1069 348L1065 349L1065 350L1063 350L1063 351L1060 351L1060 352L1055 353L1055 354L1052 354L1052 355L1044 356L1044 357L1038 357L1038 358L1015 358L1015 357L1008 357L1008 356L1004 356L1004 355L1000 355L1000 354L994 353L994 352L991 352L991 351L989 351L989 350L987 350L987 349L984 349L983 347L981 347L981 346L977 345L976 343L974 343L974 344L972 344L972 345L970 345L970 346L966 347L966 348L964 348L964 349L963 349L963 350L961 350L960 352L958 352L956 355L954 355L954 356L953 356L953 357L952 357L952 358L951 358L951 359L950 359L950 360L949 360L946 364L945 364L945 365L944 365L944 367L942 368L942 370L940 371L940 373L939 373L939 374L938 374L938 376L937 376L937 378L936 378L936 380L935 380L935 383L934 383L934 386L933 386L933 389L932 389L931 398L930 398L930 408L900 408L900 402L899 402L899 389L898 389L897 378L896 378L896 374L895 374L895 370L894 370L893 364L892 364L891 358L890 358L890 356L889 356L889 353L888 353L888 351L887 351L886 347L888 347L888 346L889 346L889 345L891 345L892 343L894 343L895 341L899 340L900 338L902 338L902 337L903 337L903 336L905 336L906 334L908 334L909 332L913 331L913 330L914 330L914 329L916 329L917 327L919 327L920 325L924 324L924 323L925 323L925 322L927 322L928 320L932 319L932 318L933 318L933 317L935 317L936 315L940 314L940 313L941 313L941 312L943 312L944 310L946 310L946 309L948 309L949 307L953 306L954 304L958 303L959 301L963 300L964 298L968 297L969 295L972 295L972 297L973 297L973 298L974 298L974 300L976 301L976 303L977 303L977 304L978 304L978 305L979 305L979 306L980 306L980 307L981 307L981 308L985 311L985 312L986 312L986 313L988 313L990 316L994 317L995 319L997 319L997 320L999 320L999 321L1002 321L1002 322L1008 323L1008 324L1020 325L1020 326L1036 325L1036 324L1040 324L1040 323L1047 322L1047 321L1049 321L1049 320L1051 320L1051 319L1055 318L1055 317L1056 317L1056 316L1058 316L1059 314L1061 314L1061 313L1065 310L1065 309L1067 309L1067 308L1068 308L1068 306L1069 306L1072 302L1073 302L1073 300L1074 300L1074 299L1075 299L1075 297L1077 296L1077 294L1078 294L1078 292L1079 292L1079 290L1080 290L1081 284L1082 284L1083 275L1084 275L1084 260L1083 260L1083 254L1082 254L1082 250L1081 250L1081 247L1080 247L1080 244L1079 244L1079 241L1078 241L1078 240L1079 240L1079 239L1081 239L1082 237L1086 236L1087 234L1091 233L1091 232L1092 232L1092 231L1094 231L1095 229L1099 228L1099 227L1100 227L1100 226L1102 226L1103 224L1105 224L1105 223L1109 222ZM1128 288L1129 288L1129 528L1128 528L1128 526L1127 526L1126 520L1125 520L1125 518L1124 518L1124 516L1123 516L1123 513L1122 513L1122 511L1121 511L1121 509L1120 509L1119 505L1118 505L1118 504L1117 504L1117 502L1115 501L1115 499L1114 499L1114 498L1113 498L1113 496L1111 495L1111 493L1110 493L1107 489L1106 489L1106 487L1105 487L1105 486L1104 486L1104 485L1103 485L1103 484L1102 484L1102 483L1101 483L1098 479L1097 479L1097 478L1095 478L1095 477L1094 477L1094 341L1095 341L1097 338L1099 338L1099 337L1100 337L1103 333L1104 333L1104 331L1105 331L1108 327L1109 327L1109 325L1112 323L1112 321L1113 321L1113 320L1114 320L1114 318L1116 317L1116 315L1118 314L1118 312L1119 312L1119 310L1120 310L1120 308L1121 308L1122 304L1123 304L1123 302L1124 302L1124 299L1125 299L1125 297L1126 297L1126 294L1127 294ZM437 342L438 342L438 476L437 476ZM786 403L787 403L787 423L786 423ZM602 407L632 407L632 412L633 412L633 426L634 426L635 437L636 437L636 441L637 441L637 445L638 445L639 451L640 451L640 454L641 454L641 456L642 456L642 458L643 458L643 460L644 460L644 463L646 464L646 466L644 466L644 467L640 468L639 470L637 470L637 471L633 472L632 474L630 474L630 475L626 476L625 478L623 478L623 479L621 479L621 480L617 481L616 483L612 484L611 486L609 486L609 487L605 488L604 490L600 491L599 493L597 493L597 494L595 494L595 495L591 496L590 498L588 498L588 499L584 500L583 502L579 503L578 505L576 505L576 506L572 507L571 509L569 509L569 510L565 511L564 513L562 513L562 514L560 514L560 515L556 516L556 517L554 517L554 516L553 516L553 515L552 515L552 514L551 514L551 513L550 513L547 509L546 509L546 508L544 508L544 507L543 507L542 505L540 505L539 503L537 503L537 502L535 502L535 501L533 501L533 500L530 500L530 499L524 498L524 497L520 497L520 496L514 496L514 495L502 495L502 496L492 497L492 498L489 498L489 499L486 499L486 500L484 500L484 501L479 502L478 504L476 504L476 505L474 505L472 508L470 508L470 509L469 509L469 510L468 510L468 511L467 511L467 512L466 512L466 513L465 513L462 517L461 517L461 518L460 518L460 520L459 520L459 521L458 521L458 523L456 524L456 526L455 526L455 528L454 528L454 530L453 530L452 534L451 534L450 540L449 540L449 545L448 545L448 563L449 563L449 568L450 568L451 574L452 574L452 576L453 576L453 578L454 578L454 580L455 580L456 582L455 582L455 581L453 581L453 582L449 583L448 585L444 586L443 588L441 588L440 590L436 591L435 593L433 593L433 594L429 595L428 597L423 598L423 596L422 596L421 592L419 591L419 588L418 588L418 586L417 586L417 584L416 584L415 578L414 578L414 574L413 574L413 570L412 570L412 564L411 564L411 544L412 544L412 537L413 537L414 528L415 528L416 522L417 522L417 520L418 520L418 517L419 517L419 515L420 515L420 513L421 513L422 509L423 509L423 507L425 506L425 504L426 504L426 503L427 503L427 501L429 500L429 498L432 496L432 494L433 494L433 493L434 493L434 492L435 492L435 491L436 491L436 490L437 490L437 489L438 489L438 488L442 485L442 484L443 484L443 483L444 483L444 482L446 482L449 478L451 478L452 476L454 476L455 474L457 474L457 473L459 473L459 472L461 472L461 471L463 471L463 470L467 469L467 468L469 468L469 467L471 467L471 466L477 465L477 464L481 464L481 463L485 463L485 462L490 462L490 461L502 461L502 460L505 460L505 461L517 461L517 462L527 463L527 464L531 464L531 465L537 466L537 467L540 467L540 468L545 469L545 470L547 470L547 471L549 471L549 472L553 473L553 474L556 474L556 473L560 472L560 471L561 471L561 470L563 470L564 468L566 468L566 467L567 467L567 466L569 466L570 464L572 464L572 463L576 460L576 459L578 459L578 458L579 458L582 454L583 454L583 452L587 449L587 447L590 445L591 441L593 440L593 438L594 438L594 436L595 436L595 434L596 434L596 431L597 431L597 429L598 429L598 426L599 426L599 423L600 423L600 418L601 418L601 411L602 411ZM741 447L776 447L776 448L741 448ZM875 483L878 483L879 485L881 485L881 486L883 486L884 488L888 489L889 491L893 492L894 494L896 494L896 495L900 496L901 498L903 498L903 499L905 499L906 501L908 501L908 502L912 503L913 505L917 506L918 508L922 509L923 511L927 512L928 514L930 514L930 515L934 516L934 517L935 517L935 518L937 518L938 520L942 521L943 523L947 524L948 526L952 527L953 529L955 529L955 530L957 530L958 532L962 533L963 535L965 535L964 544L963 544L963 561L964 561L964 566L965 566L965 570L966 570L966 572L967 572L967 575L968 575L968 577L969 577L970 581L972 582L973 586L976 588L976 590L977 590L977 591L978 591L981 595L982 595L982 596L984 596L987 600L989 600L990 602L992 602L992 603L994 603L994 604L996 604L996 605L1000 606L1000 607L1006 608L1006 609L1010 609L1010 610L1017 610L1017 611L1029 611L1029 610L1035 610L1035 609L1040 609L1040 608L1046 607L1046 606L1048 606L1048 605L1050 605L1050 604L1054 603L1054 602L1056 602L1057 600L1059 600L1061 597L1063 597L1063 596L1064 596L1064 595L1065 595L1065 594L1066 594L1066 593L1067 593L1067 592L1071 589L1071 588L1072 588L1072 586L1075 584L1075 582L1076 582L1077 578L1078 578L1078 579L1080 579L1081 581L1083 581L1083 582L1085 582L1085 583L1089 584L1089 585L1090 585L1090 586L1092 586L1093 588L1097 589L1098 591L1100 591L1100 592L1104 593L1105 595L1108 595L1108 596L1107 596L1107 597L1106 597L1106 599L1104 600L1104 602L1101 604L1101 606L1100 606L1097 610L1096 610L1096 612L1095 612L1095 613L1091 616L1091 617L1089 617L1089 618L1088 618L1085 622L1084 622L1084 623L1082 623L1081 625L1079 625L1079 626L1078 626L1078 627L1076 627L1075 629L1073 629L1072 631L1070 631L1070 632L1068 632L1068 633L1064 634L1064 635L1061 635L1061 636L1059 636L1059 637L1056 637L1056 638L1054 638L1054 639L1050 639L1050 640L1047 640L1047 641L1042 641L1042 642L1036 642L1036 643L1009 643L1009 642L998 641L998 640L992 639L992 638L988 638L988 637L986 637L986 636L984 636L984 635L981 635L981 634L979 634L979 633L975 632L974 630L970 629L969 627L967 627L967 626L966 626L965 624L963 624L960 620L958 620L958 619L957 619L957 618L956 618L956 617L955 617L955 616L951 613L951 612L950 612L950 610L946 607L946 605L945 605L945 604L944 604L944 602L942 601L942 599L941 599L941 597L939 596L939 594L938 594L938 592L937 592L937 589L936 589L936 587L935 587L935 585L934 585L933 578L932 578L931 571L930 571L929 562L928 562L928 561L927 561L927 560L926 560L926 559L925 559L922 555L921 555L921 554L919 554L918 552L916 552L916 551L914 551L914 550L912 550L912 549L908 548L908 547L906 547L906 546L902 546L902 545L899 545L899 544L893 544L893 543L876 543L876 544L870 544L870 545L863 546L863 547L860 547L860 548L858 548L858 549L856 549L856 550L855 550L855 548L854 548L854 547L853 547L853 545L852 545L852 543L851 543L851 542L850 542L850 540L848 539L848 537L847 537L846 533L844 532L843 528L841 527L840 523L839 523L839 522L838 522L838 520L836 520L836 519L838 519L838 518L839 518L839 517L841 517L842 515L844 515L844 514L845 514L846 512L848 512L851 508L853 508L853 507L854 507L854 506L855 506L855 505L856 505L856 504L857 504L857 503L858 503L858 502L859 502L859 501L860 501L860 500L861 500L861 499L865 496L865 495L866 495L866 494L867 494L867 493L868 493L868 492L869 492L869 490L873 487L873 485L874 485ZM695 519L696 519L697 521L699 521L699 522L701 522L701 523L703 523L703 524L705 524L705 525L709 526L709 527L711 527L711 528L713 528L713 529L718 530L718 531L722 531L722 532L728 533L728 534L731 534L731 535L735 535L735 536L746 537L746 538L752 538L752 539L753 539L753 637L752 637L752 638L750 638L750 639L746 639L746 640L744 640L744 641L742 641L742 642L740 642L740 643L736 644L736 645L734 645L734 646L733 646L733 647L731 647L730 649L728 649L728 650L727 650L727 651L726 651L726 652L725 652L725 653L724 653L724 654L720 657L720 658L719 658L719 660L716 662L715 666L713 667L713 669L712 669L712 671L711 671L711 673L710 673L709 679L708 679L708 682L707 682L707 687L706 687L706 705L707 705L708 713L709 713L709 716L710 716L710 718L711 718L712 723L714 724L714 726L715 726L715 727L716 727L716 729L718 730L718 732L719 732L719 733L720 733L720 734L721 734L721 735L722 735L725 739L726 739L726 740L728 740L730 743L734 744L735 746L737 746L737 747L739 747L739 748L741 748L741 749L747 750L747 751L757 752L757 753L767 753L767 755L766 755L766 788L771 788L771 789L752 789L752 788L740 787L740 786L733 785L733 784L728 783L728 782L725 782L725 781L723 781L723 780L719 779L718 777L716 777L716 776L712 775L712 774L711 774L711 773L709 773L707 770L705 770L705 769L701 766L701 765L699 765L699 764L698 764L698 763L694 760L694 759L693 759L693 757L689 754L689 752L687 751L687 749L686 749L686 748L685 748L685 746L683 745L683 743L681 742L681 740L680 740L680 738L679 738L679 736L678 736L678 733L677 733L677 731L676 731L676 728L675 728L675 726L674 726L674 722L673 722L672 714L671 714L671 708L670 708L670 684L671 684L671 678L672 678L672 673L673 673L673 669L674 669L675 663L676 663L676 661L677 661L677 658L678 658L678 656L679 656L679 654L680 654L681 650L683 649L684 645L686 644L686 642L688 641L688 639L692 636L692 634L693 634L693 633L694 633L694 632L695 632L695 631L696 631L696 630L697 630L697 629L698 629L698 628L699 628L699 627L700 627L700 626L701 626L704 622L705 622L705 621L706 621L706 620L707 620L707 619L708 619L708 618L710 618L710 617L712 616L712 597L711 597L710 588L709 588L709 585L708 585L708 583L707 583L707 580L706 580L705 576L703 575L703 573L702 573L702 571L699 569L699 567L698 567L698 566L697 566L697 565L696 565L696 564L695 564L695 563L694 563L691 559L690 559L690 558L688 558L688 557L687 557L686 555L684 555L683 553L681 553L681 552L677 551L677 550L679 549L680 545L682 544L683 540L685 539L685 537L686 537L687 533L689 532L690 528L692 527L692 525L693 525L693 523L694 523ZM1073 641L1075 641L1075 642L1074 642L1074 643L1073 643L1070 647L1069 647L1069 648L1067 648L1065 651L1063 651L1061 654L1059 654L1058 656L1056 656L1056 657L1055 657L1055 658L1053 658L1052 660L1050 660L1049 662L1045 663L1045 664L1044 664L1044 665L1042 665L1041 667L1037 668L1037 669L1036 669L1036 670L1034 670L1033 672L1029 673L1029 674L1028 674L1028 675L1026 675L1025 677L1023 677L1023 678L1021 678L1020 680L1016 681L1016 682L1015 682L1015 683L1013 683L1012 685L1010 685L1010 686L1008 686L1007 688L1003 689L1002 691L1000 691L1000 692L998 692L997 694L993 695L992 697L988 698L987 700L983 701L982 703L980 703L980 704L976 705L975 707L973 707L973 708L971 708L970 710L966 711L965 713L961 714L960 716L958 716L958 717L954 718L953 720L949 721L948 723L946 723L946 724L942 725L941 727L937 728L936 730L932 731L931 733L929 733L929 734L925 735L924 737L922 737L922 738L918 739L917 741L913 742L912 744L910 744L910 745L906 746L905 748L903 748L903 749L899 750L898 752L894 753L893 755L891 755L891 756L887 757L886 759L884 759L884 760L880 761L879 763L877 763L877 764L873 765L872 767L870 767L870 768L866 769L865 771L863 771L863 772L861 772L861 773L857 774L856 776L854 776L854 777L852 777L852 778L850 778L849 780L847 780L847 781L845 781L845 782L841 783L841 784L838 784L838 785L836 785L836 786L829 787L829 788L828 788L828 786L830 786L830 785L831 785L831 784L832 784L832 783L833 783L833 782L834 782L834 781L835 781L835 780L836 780L836 779L837 779L837 778L838 778L838 777L839 777L839 776L840 776L840 775L844 772L844 771L845 771L845 770L846 770L846 769L847 769L847 768L848 768L848 766L851 764L851 762L852 762L852 761L853 761L853 759L855 758L855 756L857 755L857 753L858 753L858 751L859 751L859 749L860 749L860 747L861 747L862 743L863 743L863 741L864 741L864 738L865 738L866 732L867 732L868 726L870 726L871 724L873 724L873 723L877 722L878 720L880 720L880 719L884 718L885 716L889 715L890 713L892 713L892 712L896 711L897 709L901 708L902 706L904 706L904 705L908 704L909 702L911 702L911 701L913 701L914 699L918 698L919 696L923 695L924 693L928 692L929 690L933 689L934 687L938 686L939 684L943 683L944 681L946 681L946 680L948 680L949 678L953 677L954 675L958 674L959 672L961 672L961 671L962 671L962 670L964 670L965 668L969 667L969 666L970 666L970 665L972 665L973 663L975 663L976 661L978 661L978 660L979 660L979 659L981 659L982 657L984 657L985 655L989 654L990 652L992 652L993 650L995 650L995 649L997 649L997 648L1008 649L1008 650L1019 650L1019 651L1041 650L1041 649L1048 649L1048 648L1053 648L1053 647L1061 646L1061 645L1064 645L1064 644L1068 644L1068 643L1070 643L1070 642L1073 642ZM827 836L850 836L850 837L827 837ZM225 837L296 837L296 838L225 838ZM320 837L428 837L428 838L320 838ZM236 866L272 866L272 867L236 867ZM580 867L655 867L655 868L580 868ZM1102 867L1178 867L1178 868L1102 868ZM752 876L753 876L753 904L752 904ZM785 876L786 876L786 896L785 896ZM940 896L941 896L941 950L940 950ZM1083 900L1084 900L1084 953L1083 953ZM304 915L305 915L305 950L304 950ZM971 916L972 916L972 937L971 937ZM230 919L255 919L255 920L230 920ZM479 919L526 919L526 920L479 920ZM853 969L902 969L902 970L853 970ZM965 969L992 969L992 970L965 970ZM1184 969L1211 969L1211 970L1184 970ZM1371 969L1460 969L1460 970L1371 970Z"/><path fill="#0757b8" stroke="#0757b8" stroke-width="0.8" stroke-linejoin="round" fill-rule="evenodd" d="M758 29L767 29L767 64L758 64L758 65L752 65L752 66L745 67L745 68L740 69L740 70L738 70L737 72L733 73L733 74L732 74L732 75L730 75L727 79L725 79L725 80L721 83L721 85L717 88L716 92L714 93L714 95L713 95L713 97L712 97L711 101L710 101L709 108L708 108L708 113L707 113L707 128L708 128L708 133L709 133L710 140L711 140L711 142L712 142L712 144L713 144L714 148L716 149L716 151L717 151L717 152L719 153L719 155L720 155L720 156L721 156L721 157L722 157L722 158L723 158L723 159L724 159L727 163L728 163L728 164L730 164L732 167L734 167L735 169L737 169L737 170L739 170L739 171L743 172L743 173L746 173L746 174L748 174L748 175L751 175L751 176L752 176L752 276L745 276L745 277L739 277L739 278L735 278L735 279L731 279L731 280L727 280L727 281L721 282L721 283L719 283L719 284L713 285L713 286L711 286L711 287L709 287L709 288L707 288L707 289L705 289L705 290L703 290L703 291L699 292L699 293L697 293L697 294L695 294L695 293L693 292L693 290L692 290L691 286L689 285L688 281L686 280L685 276L684 276L684 275L683 275L683 273L681 272L681 270L680 270L680 268L679 268L679 266L678 266L677 264L678 264L679 262L681 262L681 261L685 260L687 257L689 257L689 256L690 256L690 255L691 255L691 254L692 254L692 253L693 253L693 252L694 252L697 248L698 248L698 247L699 247L699 245L702 243L703 239L705 238L705 236L706 236L706 234L707 234L708 230L709 230L710 224L711 224L711 220L712 220L712 214L713 214L713 200L712 200L711 198L709 198L707 195L705 195L705 194L704 194L704 193L703 193L703 192L702 192L699 188L698 188L698 187L696 187L696 185L695 185L695 184L691 181L691 180L690 180L690 178L689 178L689 177L688 177L688 175L686 174L686 172L684 171L684 169L682 168L682 166L681 166L681 164L680 164L679 160L678 160L678 157L677 157L677 155L676 155L675 149L674 149L674 146L673 146L673 142L672 142L671 127L670 127L670 117L671 117L672 102L673 102L673 98L674 98L674 95L675 95L675 91L676 91L676 89L677 89L677 86L678 86L678 84L679 84L679 82L680 82L680 80L681 80L682 76L683 76L683 74L685 73L685 71L686 71L686 69L689 67L689 65L693 62L693 60L694 60L694 59L695 59L695 58L696 58L696 57L697 57L697 56L698 56L701 52L702 52L702 51L704 51L706 48L708 48L708 47L709 47L709 46L711 46L712 44L714 44L715 42L717 42L717 41L719 41L719 40L721 40L721 39L725 38L725 37L727 37L727 36L733 35L733 34L739 33L739 32L749 31L749 30L758 30ZM828 31L829 31L829 32L832 32L832 33L835 33L835 34L838 34L838 35L840 35L840 36L843 36L844 38L848 39L849 41L851 41L851 42L855 43L856 45L858 45L858 46L862 47L863 49L865 49L865 50L869 51L869 52L870 52L870 53L872 53L873 55L875 55L875 56L879 57L880 59L882 59L882 60L886 61L887 63L889 63L889 64L891 64L892 66L896 67L897 69L899 69L899 70L903 71L904 73L906 73L906 74L910 75L911 77L913 77L913 78L917 79L918 81L922 82L923 84L925 84L925 85L929 86L930 88L932 88L932 89L936 90L937 92L939 92L939 93L943 94L944 96L946 96L946 97L950 98L951 100L955 101L956 103L958 103L958 104L962 105L963 107L965 107L965 108L969 109L970 111L972 111L972 112L976 113L977 115L979 115L979 116L983 117L984 119L986 119L986 120L988 120L988 121L992 122L993 124L995 124L995 125L999 126L1000 128L1002 128L1002 129L1006 130L1007 132L1009 132L1009 133L1013 134L1014 136L1016 136L1016 137L1018 137L1018 138L1022 139L1023 141L1025 141L1025 142L1029 143L1030 145L1032 145L1032 146L1034 146L1034 147L1038 148L1039 150L1041 150L1041 151L1045 152L1046 154L1048 154L1048 155L1052 156L1053 158L1055 158L1055 159L1056 159L1056 160L1058 160L1059 162L1061 162L1063 165L1065 165L1068 169L1070 169L1070 170L1071 170L1074 174L1075 174L1075 175L1074 175L1074 174L1071 174L1071 173L1069 173L1069 172L1065 172L1065 171L1059 170L1059 169L1050 168L1050 167L1043 167L1043 166L1010 166L1010 167L997 168L997 167L995 167L995 166L991 165L990 163L986 162L985 160L983 160L983 159L979 158L978 156L974 155L973 153L969 152L968 150L966 150L966 149L962 148L961 146L957 145L956 143L952 142L951 140L949 140L949 139L945 138L944 136L940 135L939 133L937 133L937 132L933 131L932 129L928 128L927 126L925 126L925 125L921 124L920 122L916 121L915 119L911 118L910 116L908 116L908 115L904 114L903 112L899 111L898 109L894 108L893 106L891 106L891 105L887 104L886 102L882 101L881 99L877 98L876 96L874 96L874 95L870 94L870 93L868 92L868 88L867 88L866 82L865 82L864 76L863 76L863 74L862 74L862 72L861 72L861 70L860 70L859 66L858 66L858 64L857 64L857 63L856 63L856 61L854 60L854 58L852 57L852 55L851 55L851 54L849 53L849 51L848 51L848 50L847 50L847 49L846 49L846 48L845 48L845 47L844 47L844 46L843 46L843 45L842 45L842 44L841 44L841 43L840 43L840 42L839 42L836 38L835 38L835 37L834 37L834 36L833 36L833 35L832 35L832 34L830 34ZM1014 173L1042 173L1042 174L1052 175L1052 176L1058 177L1058 178L1064 179L1064 180L1066 180L1066 181L1068 181L1068 182L1070 182L1070 183L1074 184L1074 185L1076 185L1077 187L1079 187L1079 188L1080 188L1080 189L1082 189L1083 191L1085 191L1085 192L1086 192L1089 196L1090 196L1090 197L1092 197L1092 198L1095 200L1095 202L1096 202L1096 203L1100 206L1100 207L1101 207L1101 209L1102 209L1102 210L1103 210L1103 212L1105 213L1105 215L1107 216L1107 218L1108 218L1109 222L1107 222L1107 223L1103 224L1103 225L1102 225L1102 226L1100 226L1099 228L1095 229L1095 230L1094 230L1094 231L1092 231L1091 233L1087 234L1086 236L1084 236L1084 237L1082 237L1081 239L1079 239L1079 240L1078 240L1078 238L1076 237L1075 233L1073 232L1073 230L1072 230L1072 229L1071 229L1071 228L1070 228L1070 227L1069 227L1069 226L1068 226L1068 225L1067 225L1067 224L1063 221L1063 220L1062 220L1062 219L1061 219L1061 218L1059 218L1058 216L1056 216L1055 214L1053 214L1053 213L1051 213L1051 212L1049 212L1049 211L1043 210L1043 209L1040 209L1040 208L1035 208L1035 207L1025 207L1025 206L1023 206L1023 207L1014 207L1014 208L1006 209L1006 210L1003 210L1003 211L999 212L999 213L996 213L995 215L991 216L991 217L990 217L990 218L988 218L986 221L984 221L984 222L983 222L983 223L982 223L982 224L978 227L978 228L977 228L977 230L974 232L974 234L972 235L972 237L970 238L970 240L969 240L969 242L968 242L968 245L967 245L967 247L966 247L965 254L964 254L964 259L963 259L963 276L961 276L961 277L960 277L960 278L958 278L957 280L953 281L953 282L952 282L952 283L950 283L949 285L947 285L946 287L942 288L941 290L937 291L936 293L932 294L931 296L927 297L926 299L922 300L921 302L917 303L916 305L912 306L912 307L911 307L911 308L909 308L908 310L906 310L906 311L902 312L901 314L897 315L897 316L896 316L896 317L894 317L893 319L891 319L891 320L887 321L887 322L886 322L886 323L884 323L883 325L879 326L878 328L875 328L875 327L872 325L872 323L871 323L868 319L867 319L867 317L866 317L866 316L865 316L865 315L864 315L864 314L863 314L860 310L859 310L859 309L857 309L857 308L856 308L853 304L852 304L852 303L850 303L848 300L846 300L845 298L843 298L842 296L840 296L840 295L839 295L840 290L842 289L843 285L845 284L846 280L848 279L849 275L851 274L851 272L852 272L852 270L854 269L854 267L855 267L855 266L858 266L858 267L860 267L860 268L862 268L862 269L869 270L869 271L872 271L872 272L877 272L877 273L895 273L895 272L900 272L900 271L907 270L907 269L909 269L909 268L911 268L911 267L914 267L915 265L919 264L920 262L922 262L922 261L926 258L926 257L928 257L928 256L930 255L931 246L932 246L932 242L933 242L934 236L935 236L935 233L936 233L937 228L938 228L939 224L941 223L941 221L942 221L943 217L945 216L945 214L948 212L948 210L949 210L952 206L953 206L953 204L954 204L954 203L955 203L955 202L956 202L959 198L960 198L960 197L962 197L965 193L967 193L967 192L968 192L969 190L971 190L972 188L976 187L977 185L979 185L979 184L981 184L981 183L985 182L985 181L988 181L988 180L990 180L990 179L996 178L996 177L999 177L999 176L1008 175L1008 174L1014 174ZM424 220L425 220L425 221L427 221L427 222L429 222L429 223L431 223L432 225L436 226L437 228L441 229L442 231L446 232L447 234L449 234L450 236L452 236L452 237L454 237L454 238L455 238L455 240L454 240L454 242L453 242L453 245L452 245L452 247L451 247L450 253L449 253L449 257L448 257L448 264L447 264L447 273L448 273L448 280L449 280L449 284L450 284L450 287L451 287L451 289L452 289L452 292L453 292L453 294L454 294L455 298L456 298L456 299L457 299L457 301L460 303L460 305L461 305L461 306L462 306L462 307L463 307L463 308L464 308L467 312L468 312L468 313L470 313L472 316L476 317L477 319L479 319L479 320L481 320L481 321L484 321L484 322L486 322L486 323L490 323L490 324L494 324L494 325L500 325L500 326L512 326L512 325L522 324L522 323L528 322L528 321L530 321L530 320L532 320L532 319L536 318L536 317L538 317L540 314L542 314L544 311L546 311L546 310L547 310L550 306L551 306L551 304L555 301L555 299L557 298L557 296L559 295L560 297L562 297L562 298L566 299L566 300L567 300L567 301L569 301L570 303L572 303L572 304L574 304L575 306L579 307L580 309L584 310L584 311L585 311L585 312L587 312L588 314L592 315L592 316L593 316L593 317L595 317L596 319L598 319L598 320L600 320L601 322L605 323L606 325L610 326L610 327L611 327L611 328L613 328L614 330L616 330L616 331L618 331L619 333L623 334L624 336L628 337L628 338L629 338L629 339L631 339L632 341L636 342L636 343L637 343L637 344L639 344L640 346L644 347L644 348L645 348L645 351L644 351L643 356L642 356L642 358L641 358L641 360L640 360L639 366L638 366L638 370L637 370L637 374L636 374L636 378L635 378L635 382L634 382L633 396L632 396L632 407L602 407L602 397L601 397L601 391L600 391L600 387L599 387L598 381L597 381L597 379L596 379L596 377L595 377L594 373L593 373L593 371L592 371L592 370L591 370L591 368L588 366L588 364L587 364L587 363L586 363L586 362L585 362L585 361L584 361L584 360L583 360L583 359L582 359L582 358L578 355L578 354L577 354L577 353L576 353L576 352L574 352L573 350L571 350L570 348L568 348L567 346L565 346L565 345L563 345L563 344L561 344L561 343L558 343L558 342L557 342L556 344L554 344L554 345L550 346L549 348L547 348L547 349L545 349L545 350L542 350L542 351L540 351L540 352L534 353L534 354L531 354L531 355L527 355L527 356L515 357L515 358L497 358L497 357L489 357L489 356L484 356L484 355L480 355L480 354L474 353L474 352L471 352L471 351L469 351L469 350L467 350L467 349L465 349L465 348L463 348L463 347L459 346L459 345L457 345L457 344L455 344L455 343L454 343L454 342L452 342L450 339L448 339L448 338L444 335L444 334L442 334L442 333L441 333L441 332L440 332L440 331L436 328L436 327L435 327L435 325L431 322L431 320L430 320L430 319L428 318L428 316L426 315L426 313L425 313L424 309L422 308L422 306L421 306L421 304L420 304L420 302L419 302L419 299L418 299L418 297L417 297L416 291L415 291L415 287L414 287L414 284L413 284L413 278L412 278L412 270L411 270L411 255L412 255L412 248L413 248L413 244L414 244L414 240L415 240L416 234L417 234L417 232L418 232L418 230L419 230L419 228L420 228L420 226L421 226L421 224L423 223L423 221L424 221ZM403 289L404 289L404 292L405 292L406 298L407 298L407 300L408 300L408 303L409 303L409 305L410 305L410 307L411 307L411 309L412 309L413 313L414 313L414 315L416 316L416 318L417 318L417 319L418 319L418 321L420 322L420 324L423 326L423 328L424 328L424 329L428 332L428 333L429 333L429 335L437 341L437 477L436 477L436 478L435 478L435 479L434 479L434 480L433 480L433 481L432 481L432 482L431 482L431 483L430 483L430 484L429 484L426 488L425 488L425 489L424 489L424 490L423 490L423 491L422 491L422 493L419 495L419 497L417 498L417 500L415 501L414 505L412 506L412 508L411 508L411 510L410 510L409 514L408 514L408 517L407 517L407 519L406 519L406 522L405 522L405 524L404 524L404 527L403 527ZM811 368L812 368L812 427L811 427ZM900 408L930 408L930 418L931 418L932 426L933 426L934 432L935 432L935 434L936 434L936 437L937 437L937 439L939 440L939 442L941 443L942 447L945 449L945 451L946 451L946 452L947 452L947 453L948 453L948 454L949 454L949 455L950 455L950 456L951 456L951 457L955 460L955 461L956 461L956 462L957 462L957 463L959 463L960 465L962 465L963 467L965 467L966 469L968 469L969 471L971 471L971 472L973 472L973 473L975 473L975 474L979 474L979 473L981 473L981 472L983 472L983 471L987 470L987 469L990 469L990 468L992 468L992 467L998 466L998 465L1001 465L1001 464L1005 464L1005 463L1010 463L1010 462L1017 462L1017 461L1041 461L1041 462L1047 462L1047 463L1055 464L1055 465L1058 465L1058 466L1060 466L1060 467L1065 468L1065 469L1068 469L1069 471L1071 471L1071 472L1075 473L1076 475L1078 475L1078 476L1079 476L1079 477L1081 477L1082 479L1084 479L1084 480L1085 480L1088 484L1089 484L1089 485L1091 485L1091 486L1095 489L1095 491L1096 491L1096 492L1100 495L1100 496L1101 496L1101 498L1102 498L1102 499L1103 499L1103 501L1105 502L1105 504L1107 505L1108 509L1110 510L1110 513L1111 513L1111 515L1112 515L1112 517L1113 517L1113 520L1114 520L1115 525L1116 525L1116 528L1117 528L1118 538L1119 538L1119 565L1118 565L1118 570L1117 570L1116 578L1115 578L1115 580L1114 580L1114 583L1113 583L1113 585L1112 585L1112 587L1111 587L1111 589L1110 589L1109 593L1108 593L1108 595L1105 595L1104 593L1102 593L1102 592L1098 591L1097 589L1093 588L1092 586L1090 586L1089 584L1087 584L1087 583L1085 583L1085 582L1081 581L1080 579L1078 579L1078 577L1079 577L1079 575L1080 575L1080 572L1081 572L1082 563L1083 563L1083 544L1082 544L1081 535L1080 535L1080 532L1079 532L1079 530L1078 530L1078 527L1077 527L1076 523L1074 522L1074 520L1073 520L1073 518L1070 516L1070 514L1069 514L1069 513L1068 513L1068 512L1067 512L1064 508L1063 508L1063 507L1061 507L1059 504L1057 504L1056 502L1054 502L1054 501L1052 501L1052 500L1050 500L1050 499L1046 498L1046 497L1040 496L1040 495L1036 495L1036 494L1030 494L1030 493L1019 493L1019 494L1012 494L1012 495L1008 495L1008 496L1001 497L1001 498L999 498L999 499L997 499L997 500L993 501L993 502L991 502L989 505L987 505L985 508L983 508L983 509L982 509L982 510L978 513L978 514L977 514L977 516L974 516L974 515L972 515L971 513L969 513L969 512L965 511L964 509L960 508L959 506L957 506L957 505L953 504L952 502L948 501L947 499L943 498L942 496L940 496L940 495L936 494L935 492L931 491L930 489L928 489L928 488L924 487L923 485L919 484L918 482L914 481L913 479L911 479L911 478L907 477L906 475L902 474L901 472L897 471L896 469L894 469L894 468L890 467L889 465L887 465L888 460L889 460L889 458L890 458L891 454L892 454L893 448L894 448L894 445L895 445L895 441L896 441L896 437L897 437L898 426L899 426L899 417L900 417ZM786 423L787 423L787 470L786 470ZM654 483L656 483L656 484L658 485L658 487L662 490L662 492L663 492L663 493L664 493L664 494L665 494L665 495L666 495L666 496L667 496L667 497L668 497L668 498L669 498L669 499L670 499L670 500L671 500L674 504L675 504L675 505L676 505L676 506L677 506L677 507L678 507L678 508L680 508L683 512L685 512L687 515L689 515L690 517L692 517L693 519L695 519L695 521L694 521L694 523L693 523L692 527L690 528L689 532L687 533L687 535L686 535L685 539L683 540L682 544L680 545L679 549L678 549L678 550L675 550L675 549L673 549L673 548L667 547L667 546L664 546L664 545L652 544L652 543L643 543L643 544L635 544L635 545L627 546L627 547L624 547L624 548L619 549L619 550L617 550L616 552L612 553L610 556L608 556L608 557L607 557L607 558L606 558L606 559L602 562L602 563L601 563L600 575L599 575L599 578L598 578L598 582L597 582L596 588L595 588L595 590L594 590L594 592L593 592L592 596L591 596L591 598L589 599L588 603L586 604L586 606L583 608L583 610L582 610L582 611L581 611L581 612L580 612L580 613L579 613L579 614L578 614L578 615L577 615L577 616L576 616L573 620L572 620L572 621L571 621L571 622L570 622L570 623L568 623L566 626L564 626L564 627L563 627L563 628L561 628L560 630L556 631L555 633L553 633L553 634L551 634L551 635L547 636L547 637L544 637L544 638L538 639L538 640L535 640L535 641L526 642L526 643L519 643L519 644L494 644L494 643L483 642L483 641L480 641L480 640L477 640L477 639L473 639L473 638L471 638L471 637L468 637L468 636L466 636L466 635L464 635L464 634L462 634L462 633L458 632L458 631L456 631L456 630L455 630L455 629L453 629L452 627L450 627L449 625L447 625L447 624L443 621L443 620L441 620L441 619L440 619L440 618L436 615L436 614L435 614L435 612L434 612L431 608L430 608L430 606L429 606L429 605L428 605L428 603L426 602L426 600L424 599L424 598L428 597L429 595L431 595L431 594L435 593L436 591L440 590L440 589L441 589L441 588L443 588L444 586L448 585L449 583L451 583L451 582L455 581L455 582L456 582L456 584L458 585L458 587L462 590L462 592L463 592L466 596L468 596L468 597L472 600L472 601L474 601L475 603L477 603L477 604L479 604L479 605L481 605L481 606L485 607L485 608L487 608L487 609L490 609L490 610L499 611L499 612L516 612L516 611L522 611L522 610L525 610L525 609L531 608L531 607L533 607L533 606L537 605L537 604L538 604L538 603L540 603L541 601L543 601L543 600L544 600L544 599L545 599L545 598L546 598L546 597L547 597L547 596L548 596L548 595L549 595L552 591L553 591L553 590L554 590L554 589L555 589L555 587L558 585L558 583L559 583L559 581L560 581L560 579L561 579L562 575L563 575L564 569L565 569L565 565L566 565L566 559L567 559L567 547L566 547L566 541L565 541L565 537L564 537L564 535L566 535L567 533L569 533L569 532L571 532L572 530L576 529L577 527L579 527L579 526L583 525L584 523L586 523L586 522L590 521L591 519L595 518L596 516L598 516L598 515L602 514L603 512L605 512L605 511L609 510L610 508L612 508L612 507L616 506L617 504L619 504L619 503L623 502L624 500L626 500L626 499L630 498L631 496L633 496L633 495L637 494L638 492L640 492L640 491L642 491L642 490L646 489L647 487L649 487L649 486L651 486L651 485L653 485ZM835 520L838 520L838 522L840 523L841 527L843 528L844 532L846 533L846 535L847 535L848 539L849 539L849 540L850 540L850 542L852 543L853 547L855 548L855 550L851 551L851 552L850 552L850 553L848 553L847 555L845 555L842 559L840 559L840 560L837 562L837 564L836 564L833 568L832 568L832 570L830 571L830 573L828 574L828 576L827 576L827 578L826 578L825 582L824 582L823 588L822 588L822 592L821 592L821 597L820 597L820 616L821 616L821 617L823 617L825 620L827 620L827 621L828 621L828 622L829 622L829 623L830 623L830 624L831 624L831 625L832 625L832 626L833 626L833 627L834 627L834 628L838 631L838 632L839 632L839 633L840 633L840 634L841 634L841 636L845 639L845 641L847 642L847 644L849 645L849 647L850 647L850 649L851 649L851 651L852 651L853 655L854 655L854 657L855 657L855 660L856 660L856 662L857 662L858 668L859 668L859 672L860 672L860 677L861 677L861 684L862 684L862 703L861 703L860 717L859 717L859 720L858 720L858 723L857 723L857 727L856 727L856 729L855 729L855 732L854 732L854 734L853 734L853 737L852 737L851 741L849 742L848 746L847 746L847 747L846 747L846 749L844 750L844 752L840 755L840 757L839 757L839 758L838 758L838 759L837 759L837 760L836 760L833 764L832 764L832 765L830 765L827 769L825 769L825 770L824 770L823 772L821 772L820 774L818 774L818 775L816 775L816 776L812 777L811 779L806 780L806 781L804 781L804 782L801 782L801 783L798 783L798 784L795 784L795 785L791 785L791 786L787 786L787 787L780 787L780 788L766 788L766 755L767 755L767 753L775 753L775 752L780 752L780 751L786 750L786 749L788 749L788 748L791 748L791 747L795 746L795 745L796 745L796 744L798 744L799 742L801 742L804 738L806 738L806 737L807 737L807 736L811 733L811 732L812 732L812 730L815 728L815 726L817 725L817 723L819 722L819 720L820 720L820 718L821 718L821 715L822 715L822 713L823 713L823 710L824 710L825 700L826 700L826 686L825 686L825 680L824 680L823 674L822 674L822 671L821 671L821 669L820 669L820 667L819 667L818 663L817 663L817 662L816 662L816 660L814 659L814 657L813 657L813 656L812 656L812 655L811 655L811 654L810 654L810 653L809 653L806 649L805 649L805 648L803 648L801 645L799 645L799 644L795 643L795 642L794 642L794 641L792 641L792 640L789 640L789 639L783 638L783 637L780 637L780 539L783 539L783 538L790 538L790 537L795 537L795 536L799 536L799 535L805 534L805 533L812 532L812 531L814 531L814 530L817 530L817 529L819 529L819 528L823 527L823 526L826 526L826 525L828 525L828 524L832 523L832 522L833 522L833 521L835 521ZM457 642L462 643L462 644L464 644L464 645L467 645L467 646L474 647L474 648L479 648L479 649L489 650L489 651L503 651L503 652L510 652L510 651L522 651L522 650L528 650L528 649L533 649L533 648L534 648L534 649L536 649L536 650L537 650L537 651L539 651L540 653L544 654L544 655L545 655L545 656L547 656L548 658L550 658L551 660L553 660L553 661L554 661L554 662L556 662L557 664L559 664L560 666L564 667L564 668L565 668L565 669L567 669L568 671L570 671L571 673L573 673L573 674L575 674L576 676L580 677L581 679L583 679L584 681L586 681L586 682L588 682L589 684L593 685L594 687L596 687L596 688L600 689L601 691L605 692L606 694L608 694L608 695L610 695L611 697L615 698L616 700L620 701L621 703L625 704L626 706L628 706L628 707L632 708L633 710L637 711L638 713L640 713L640 714L644 715L645 717L649 718L650 720L652 720L652 721L656 722L657 724L659 724L659 725L663 726L663 728L664 728L664 732L665 732L665 735L666 735L666 738L667 738L667 740L668 740L668 743L669 743L669 745L670 745L670 747L671 747L671 749L672 749L673 753L674 753L674 755L676 756L676 758L677 758L677 759L678 759L678 761L680 762L680 764L684 767L684 769L685 769L685 770L686 770L686 771L687 771L687 772L688 772L688 773L689 773L689 774L690 774L690 775L691 775L691 776L692 776L692 777L696 780L696 781L697 781L697 782L698 782L698 783L699 783L699 784L701 784L704 788L703 788L703 787L696 786L696 785L693 785L693 784L691 784L691 783L689 783L689 782L685 781L685 780L683 780L682 778L680 778L680 777L678 777L678 776L674 775L673 773L671 773L671 772L667 771L666 769L664 769L664 768L660 767L659 765L657 765L657 764L653 763L652 761L650 761L650 760L646 759L645 757L643 757L643 756L639 755L638 753L634 752L633 750L631 750L631 749L627 748L626 746L624 746L624 745L620 744L619 742L617 742L617 741L613 740L612 738L608 737L607 735L605 735L605 734L601 733L600 731L596 730L595 728L593 728L593 727L589 726L588 724L584 723L583 721L581 721L581 720L577 719L576 717L572 716L571 714L569 714L569 713L567 713L567 712L563 711L563 710L562 710L562 709L560 709L559 707L557 707L557 706L555 706L554 704L552 704L552 703L548 702L547 700L543 699L542 697L540 697L540 696L538 696L537 694L535 694L535 693L531 692L530 690L526 689L525 687L521 686L520 684L518 684L518 683L516 683L515 681L511 680L510 678L506 677L506 676L505 676L505 675L503 675L502 673L498 672L498 671L497 671L497 670L495 670L494 668L492 668L492 667L490 667L489 665L485 664L485 663L484 663L484 662L482 662L481 660L479 660L477 657L475 657L475 656L473 656L471 653L469 653L466 649L464 649L464 648L463 648L461 645L459 645ZM464 837L545 837L545 838L464 838ZM575 837L610 837L610 838L575 838ZM638 837L657 837L657 838L638 838ZM752 837L753 837L753 876L752 876ZM963 837L1046 837L1046 838L963 838ZM1488 838L1489 838L1489 862L1488 862ZM1225 847L1226 847L1226 872L1225 872ZM553 855L554 855L554 865L553 865L553 866L482 866L482 865L553 865ZM854 857L855 857L855 918L854 918ZM1209 858L1210 858L1210 893L1209 893ZM687 860L688 860L688 897L687 897ZM892 860L893 860L893 942L892 942ZM217 866L236 866L236 867L217 867ZM977 866L1031 866L1031 867L977 867ZM476 872L477 872L477 892L476 892ZM971 882L972 882L972 903L971 903ZM227 893L267 893L267 894L227 894ZM569 893L644 893L644 894L569 894ZM1084 893L1154 893L1154 894L1084 894ZM785 896L786 896L786 927L785 927ZM568 917L569 917L569 952L568 952ZM202 919L230 919L230 920L202 920ZM1116 923L1117 923L1117 948L1116 948ZM97 945L120 945L120 946L121 946L121 949L120 949L120 946L97 946ZM162 948L163 948L163 969L162 969L162 970L130 970L130 969L162 969ZM1225 965L1226 965L1226 969L1251 969L1251 970L1226 970L1226 969L1225 969ZM85 969L114 969L114 970L85 970ZM184 969L261 969L261 970L184 970ZM353 969L386 969L386 970L353 970ZM569 969L600 969L600 970L569 970ZM653 969L685 969L685 970L653 970ZM774 969L830 969L830 970L774 970ZM1084 969L1116 969L1116 970L1084 970Z"/><path fill="#082c55" stroke="#082c55" stroke-width="0.8" stroke-linejoin="round" fill-rule="evenodd" d="M761 293L783 294L783 295L789 295L789 296L794 296L794 297L802 298L802 299L808 300L808 301L810 301L810 302L813 302L813 303L815 303L815 304L817 304L817 305L819 305L819 306L823 307L823 308L825 308L826 310L828 310L828 311L830 311L831 313L833 313L834 315L836 315L838 318L840 318L840 319L841 319L841 320L842 320L842 321L843 321L843 322L844 322L844 323L845 323L845 324L846 324L846 325L847 325L847 326L848 326L848 327L852 330L852 331L853 331L853 332L854 332L854 333L855 333L855 334L856 334L856 336L860 339L860 341L861 341L861 342L862 342L862 344L864 345L865 349L867 350L867 352L868 352L868 354L869 354L869 356L870 356L871 360L872 360L872 362L873 362L874 368L875 368L875 370L876 370L876 374L877 374L878 381L879 381L879 386L880 386L880 393L881 393L881 421L880 421L880 427L879 427L879 432L878 432L877 440L876 440L875 446L874 446L874 448L873 448L873 451L872 451L872 453L871 453L871 455L870 455L870 457L869 457L868 461L867 461L867 463L865 464L865 466L864 466L864 468L862 469L862 471L860 472L860 474L857 476L857 478L856 478L856 479L852 482L852 483L851 483L851 485L850 485L850 486L849 486L846 490L845 490L845 491L843 491L843 492L839 495L839 496L837 496L835 499L833 499L833 500L832 500L832 501L830 501L829 503L827 503L826 505L824 505L824 506L822 506L822 507L820 507L820 508L818 508L818 509L814 510L814 511L812 511L812 512L810 512L810 513L807 513L807 514L805 514L805 515L802 515L802 516L798 516L798 517L795 517L795 518L790 518L790 519L785 519L785 520L776 520L776 521L756 521L756 520L747 520L747 519L737 518L737 517L730 516L730 515L725 514L725 513L722 513L722 512L720 512L720 511L718 511L718 510L715 510L715 509L711 508L710 506L706 505L705 503L701 502L700 500L698 500L695 496L693 496L690 492L688 492L688 491L687 491L687 490L686 490L686 489L685 489L685 488L681 485L681 484L680 484L680 482L679 482L679 481L675 478L675 477L674 477L674 475L672 474L672 472L671 472L671 471L670 471L670 469L668 468L668 466L666 465L666 463L665 463L665 461L664 461L664 459L663 459L663 457L662 457L661 453L660 453L660 451L659 451L659 448L658 448L658 446L657 446L656 440L655 440L655 436L654 436L654 432L653 432L653 428L652 428L652 421L651 421L651 394L652 394L652 387L653 387L653 383L654 383L654 379L655 379L655 375L656 375L656 372L657 372L658 366L659 366L659 364L660 364L660 361L661 361L661 359L662 359L662 357L663 357L664 353L666 352L667 348L669 347L669 345L670 345L670 344L671 344L671 342L673 341L673 339L676 337L676 335L677 335L677 334L678 334L678 333L679 333L679 332L680 332L680 331L681 331L681 330L682 330L682 329L683 329L683 328L684 328L684 327L685 327L688 323L689 323L689 322L690 322L690 321L691 321L691 320L692 320L692 319L694 319L696 316L698 316L699 314L701 314L701 313L702 313L702 312L704 312L705 310L707 310L708 308L710 308L710 307L712 307L712 306L714 306L714 305L718 304L718 303L721 303L721 302L723 302L723 301L729 300L729 299L735 298L735 297L739 297L739 296L750 295L750 294L761 294ZM767 355L767 356L765 356L765 357L764 357L764 359L762 360L761 364L760 364L760 365L759 365L759 367L757 368L757 370L755 371L754 375L753 375L753 376L752 376L752 378L750 379L750 381L748 382L747 386L746 386L746 387L745 387L745 389L743 390L742 394L740 395L740 397L739 397L739 398L738 398L738 400L736 401L736 403L734 404L733 408L731 409L731 411L730 411L730 412L729 412L729 414L727 415L727 417L725 418L724 422L723 422L723 423L722 423L722 425L720 426L719 430L718 430L718 431L717 431L717 433L715 434L714 438L712 439L711 443L709 444L709 446L707 447L707 449L706 449L706 451L705 451L705 453L704 453L704 456L703 456L704 463L705 463L705 465L706 465L709 469L711 469L711 470L776 470L776 447L736 447L736 446L737 446L737 444L739 443L740 439L742 438L743 434L745 433L745 431L747 430L748 426L749 426L749 425L750 425L750 423L752 422L753 418L755 417L756 413L758 412L758 410L760 409L761 405L763 404L764 400L766 399L767 395L769 394L770 390L771 390L771 389L772 389L772 387L774 386L774 384L776 383L776 381L777 381L777 379L778 379L778 378L786 378L786 470L811 470L811 427L812 427L812 368L811 368L811 364L810 364L810 362L808 361L808 359L807 359L807 358L805 358L804 356L802 356L802 355ZM610 837L614 837L614 838L632 838L632 837L638 837L638 838L668 838L668 839L674 840L674 841L676 841L677 843L679 843L679 844L683 847L683 849L685 850L685 853L686 853L686 855L687 855L687 906L686 906L686 909L685 909L684 913L683 913L683 914L679 917L679 918L677 918L677 919L675 919L675 920L672 920L672 921L668 921L668 922L657 922L657 924L660 926L660 928L661 928L661 929L663 930L663 932L666 934L666 936L670 939L670 941L673 943L673 945L677 948L677 950L680 952L680 954L684 957L684 959L688 962L688 964L691 966L691 968L692 968L692 969L652 969L652 968L650 967L650 965L649 965L646 961L645 961L645 959L641 956L641 954L637 951L637 949L633 946L633 944L629 941L629 939L625 936L625 934L621 931L621 929L618 927L618 925L617 925L614 921L600 921L600 969L569 969L569 894L644 894L644 893L658 893L658 891L659 891L659 871L658 871L658 868L657 868L657 867L570 867L570 838L610 838ZM753 837L785 837L785 927L786 927L786 944L824 943L824 933L825 933L825 918L824 918L824 837L854 837L854 918L855 918L855 943L892 943L892 942L893 942L893 860L892 860L892 837L922 837L922 838L923 838L923 953L922 953L922 956L921 956L921 958L919 959L919 961L918 961L916 964L914 964L913 966L911 966L911 967L909 967L909 968L905 968L905 969L770 969L770 968L767 968L767 967L763 966L762 964L760 964L760 963L756 960L756 958L755 958L755 956L754 956L754 953L753 953ZM1082 837L1189 837L1189 838L1196 839L1196 840L1198 840L1198 841L1200 841L1201 843L1203 843L1203 844L1204 844L1204 846L1206 847L1206 849L1207 849L1207 851L1208 851L1208 854L1209 854L1209 905L1208 905L1208 909L1207 909L1207 911L1205 912L1205 914L1204 914L1203 916L1201 916L1200 918L1198 918L1198 919L1196 919L1196 920L1193 920L1193 921L1188 921L1188 922L1175 922L1175 923L1176 923L1176 924L1177 924L1177 926L1178 926L1181 930L1182 930L1182 932L1186 935L1186 937L1190 940L1190 942L1191 942L1194 946L1195 946L1195 948L1199 951L1199 953L1200 953L1200 954L1202 955L1202 957L1203 957L1206 961L1207 961L1207 963L1211 966L1211 968L1212 968L1212 969L1171 969L1171 968L1167 965L1167 963L1166 963L1163 959L1162 959L1162 957L1161 957L1158 953L1157 953L1157 951L1156 951L1153 947L1152 947L1152 945L1148 942L1148 940L1147 940L1144 936L1143 936L1143 934L1139 931L1139 929L1135 926L1135 924L1134 924L1132 921L1117 921L1117 923L1116 923L1116 969L1084 969L1084 894L1154 894L1154 893L1179 893L1179 891L1180 891L1180 870L1179 870L1179 867L1082 867L1082 852L1081 852L1081 838L1082 838ZM1226 837L1256 837L1256 851L1257 851L1257 893L1282 893L1282 891L1283 891L1283 890L1284 890L1284 888L1287 886L1287 884L1289 883L1289 881L1292 879L1292 877L1295 875L1295 873L1296 873L1296 872L1297 872L1297 870L1299 869L1299 867L1302 865L1302 863L1303 863L1303 862L1305 861L1305 859L1307 858L1307 856L1310 854L1310 852L1313 850L1313 848L1315 847L1315 845L1318 843L1318 841L1319 841L1322 837L1329 837L1329 838L1359 838L1359 839L1358 839L1358 841L1355 843L1355 845L1352 847L1352 849L1350 850L1350 852L1348 853L1348 855L1345 857L1345 859L1344 859L1344 860L1342 861L1342 863L1339 865L1339 867L1337 868L1337 870L1334 872L1334 874L1332 875L1332 877L1329 879L1329 881L1327 882L1327 884L1326 884L1326 885L1324 886L1324 888L1321 890L1321 892L1319 893L1319 895L1316 897L1316 899L1314 900L1314 902L1313 902L1313 903L1311 904L1311 906L1308 908L1308 912L1312 915L1312 917L1316 920L1316 922L1320 925L1320 927L1324 930L1324 932L1328 935L1328 937L1332 940L1332 942L1336 945L1336 947L1340 950L1340 952L1344 955L1344 957L1348 960L1348 962L1349 962L1352 966L1353 966L1353 968L1354 968L1354 969L1314 969L1314 968L1311 966L1311 964L1307 961L1307 959L1304 957L1304 955L1300 952L1300 950L1297 948L1297 946L1294 944L1294 942L1291 940L1291 938L1288 936L1288 934L1285 932L1285 930L1281 927L1281 925L1279 924L1279 922L1262 922L1262 921L1258 921L1258 922L1257 922L1257 956L1256 956L1256 969L1226 969L1226 965L1225 965L1225 872L1226 872ZM1389 837L1488 837L1488 862L1489 862L1489 865L1488 865L1488 866L1404 866L1404 867L1403 867L1403 892L1404 892L1404 893L1473 893L1473 894L1480 895L1480 896L1484 897L1486 900L1488 900L1488 902L1489 902L1489 903L1491 904L1491 906L1492 906L1492 909L1493 909L1493 915L1494 915L1494 950L1493 950L1493 954L1492 954L1491 959L1490 959L1490 960L1489 960L1486 964L1485 964L1485 965L1483 965L1483 966L1481 966L1481 967L1479 967L1479 968L1475 968L1475 969L1370 969L1370 948L1371 948L1371 944L1461 944L1461 919L1387 919L1387 918L1380 917L1379 915L1377 915L1377 914L1373 911L1373 909L1372 909L1372 907L1371 907L1371 904L1370 904L1370 855L1371 855L1371 852L1372 852L1372 850L1373 850L1374 846L1375 846L1378 842L1380 842L1380 841L1381 841L1381 840L1383 840L1383 839L1389 838ZM123 838L149 839L149 840L151 840L151 841L155 842L155 843L159 846L159 848L160 848L160 850L161 850L161 852L162 852L162 870L163 870L163 948L162 948L162 969L130 969L130 962L131 962L131 955L130 955L130 868L123 868L123 869L122 869L122 871L121 871L121 872L120 872L120 874L119 874L119 876L118 876L118 877L117 877L117 879L115 880L115 882L113 883L112 887L110 888L109 892L108 892L108 893L107 893L107 895L105 896L104 900L102 901L101 905L100 905L100 906L99 906L99 908L97 909L97 911L95 912L94 916L93 916L93 917L92 917L92 919L90 920L89 924L88 924L88 925L87 925L87 927L85 928L84 932L82 933L82 935L80 936L79 940L78 940L78 941L77 941L77 943L75 944L75 946L120 946L120 949L121 949L121 969L53 970L53 969L49 969L49 968L47 968L47 967L46 967L46 966L44 966L44 965L40 962L40 960L39 960L39 951L40 951L41 946L42 946L42 944L44 943L44 941L45 941L46 937L48 936L49 932L51 931L52 927L54 926L55 922L57 921L57 919L59 918L60 914L62 913L62 911L64 910L65 906L66 906L66 905L67 905L67 903L69 902L70 898L72 897L72 895L73 895L73 894L74 894L74 892L76 891L76 889L78 888L79 884L80 884L80 883L81 883L81 881L83 880L84 876L85 876L85 875L86 875L86 873L88 872L88 870L90 869L91 865L92 865L92 864L93 864L93 862L95 861L95 859L96 859L96 857L98 856L98 854L100 853L101 849L102 849L102 848L103 848L103 847L104 847L107 843L108 843L108 842L110 842L110 841L112 841L112 840L114 840L114 839L123 839ZM202 838L298 838L298 839L299 839L299 866L217 866L217 867L215 867L215 893L216 893L216 894L267 894L267 893L281 893L281 894L287 894L287 895L290 895L290 896L292 896L292 897L296 898L296 899L297 899L300 903L301 903L301 905L302 905L302 907L303 907L303 911L304 911L304 953L303 953L303 956L302 956L301 960L300 960L300 961L296 964L296 965L294 965L294 966L292 966L292 967L290 967L290 968L287 968L287 969L183 969L182 955L183 955L183 945L185 945L185 944L272 944L272 935L273 935L272 919L198 919L198 918L195 918L195 917L191 916L191 915L190 915L190 914L186 911L186 910L185 910L185 908L184 908L184 906L183 906L183 901L182 901L182 858L183 858L183 854L184 854L184 852L185 852L186 848L187 848L187 847L188 847L191 843L192 843L192 842L194 842L194 841L196 841L196 840L199 840L199 839L202 839ZM312 838L430 838L430 839L431 839L431 866L427 866L427 867L386 867L386 969L353 969L353 867L315 867L315 866L312 866L312 860L313 860L313 855L312 855L313 839L312 839ZM460 838L551 838L551 839L553 839L553 865L482 865L482 866L477 866L477 867L476 867L476 892L477 892L477 895L538 895L538 911L539 911L539 919L477 919L477 945L552 945L552 946L553 946L553 969L460 969L460 968L454 967L453 965L451 965L451 964L447 961L447 959L446 959L446 957L445 957L445 955L444 955L444 854L445 854L445 851L446 851L447 847L448 847L448 846L449 846L452 842L453 842L453 841L455 841L455 840L457 840L457 839L460 839ZM959 838L1050 838L1050 839L1053 839L1053 840L1057 841L1059 844L1061 844L1061 845L1063 846L1063 848L1065 849L1065 851L1066 851L1066 853L1067 853L1067 857L1068 857L1068 950L1067 950L1067 954L1066 954L1066 956L1065 956L1064 960L1063 960L1060 964L1058 964L1057 966L1055 966L1055 967L1053 967L1053 968L1049 968L1049 969L958 969L958 968L955 968L955 967L951 966L950 964L948 964L948 963L945 961L945 959L943 958L943 955L942 955L942 953L941 953L941 857L942 857L942 853L943 853L944 849L946 848L946 846L947 846L950 842L952 842L952 841L954 841L954 840L956 840L956 839L959 839ZM977 866L977 867L972 867L972 869L971 869L971 940L972 940L972 942L1037 942L1037 867L1031 867L1031 866Z"/></svg>
